<?xml version="1.0" standalone="no"?><!DOCTYPE svg PUBLIC "-//W3C//DTD SVG 1.1//EN" "http://www.w3.org/Graphics/SVG/1.1/DTD/svg11.dtd"><svg t="1596619664841" class="icon" viewBox="0 0 1024 1024" version="1.1" xmlns="http://www.w3.org/2000/svg" p-id="5720" xmlns:xlink="http://www.w3.org/1999/xlink" width="200" height="200"><defs><style type="text/css"></style></defs><path d="M546.133333 733.866667c2.133333-8.533333 2.133333-19.2 2.133334-29.866667s0-19.2-2.133334-29.866667l59.733334-42.666666c6.4-4.266667 8.533333-12.8 4.266666-19.2l-57.6-98.133334c-4.266667-6.4-10.666667-8.533333-17.066666-6.4L469.333333 539.733333c-14.933333-12.8-32-21.333333-51.2-29.866666l-6.4-72.533334c0-6.4-6.4-12.8-12.8-12.8h-113.066666c-6.4 0-12.8 6.4-12.8 12.8l-8.533334 74.666667c-19.2 6.4-34.133333 17.066667-51.2 29.866667L147.2 512c-6.4-2.133333-14.933333 0-17.066667 6.4l-57.6 98.133333c-4.266667 6.4-2.133333 14.933333 4.266667 19.2l59.733333 42.666667c-2.133333 8.533333-2.133333 19.2-2.133333 29.866667s0 19.2 2.133333 29.866666l-59.733333 42.666667c-6.4 4.266667-8.533333 12.8-4.266667 19.2l57.6 98.133333c4.266667 6.4 10.666667 8.533333 17.066667 6.4L213.333333 874.666667c14.933333 12.8 32 21.333333 51.2 29.866666l6.4 72.533334c0 6.4 6.4 12.8 12.8 12.8h113.066667c6.4 0 12.8-6.4 12.8-12.8l6.4-72.533334c19.2-6.4 34.133333-17.066667 51.2-29.866666l66.133333 29.866666c6.4 2.133333 14.933333 0 17.066667-6.4l57.6-98.133333c4.266667-6.4 2.133333-14.933333-4.266667-19.2l-57.6-46.933333zM341.333333 810.666667c-59.733333 0-106.666667-46.933333-106.666666-106.666667s46.933333-106.666667 106.666666-106.666667 106.666667 46.933333 106.666667 106.666667-46.933333 106.666667-106.666667 106.666667z" fill="#E65100" p-id="5721"></path><path d="M893.866667 326.4c2.133333-10.666667 2.133333-19.2 2.133333-27.733333s0-17.066667-2.133333-27.733334l53.333333-38.4c6.4-4.266667 6.4-10.666667 4.266667-17.066666l-53.333334-91.733334c-4.266667-6.4-10.666667-8.533333-17.066666-4.266666l-61.866667 27.733333c-14.933333-10.666667-29.866667-19.2-46.933333-27.733333l-6.4-66.133334c2.133333-6.4-2.133333-10.666667-8.533334-10.666666h-104.533333c-6.4 0-12.8 4.266667-12.8 10.666666l-6.4 66.133334c-17.066667 6.4-32 14.933333-46.933333 27.733333l-61.866667-27.733333c-6.4-2.133333-12.8 0-17.066667 4.266666l-53.333333 91.733334c-4.266667 6.4-2.133333 12.8 4.266667 17.066666l53.333333 38.4V298.666667c0 8.533333 0 17.066667 2.133333 27.733333l-53.333333 38.4c-6.4 4.266667-6.4 10.666667-4.266667 17.066667l53.333334 91.733333c4.266667 6.4 10.666667 8.533333 17.066666 4.266667l61.866667-27.733334c14.933333 10.666667 29.866667 19.2 46.933333 27.733334l6.4 66.133333c0 6.4 6.4 10.666667 12.8 10.666667h104.533334c6.4 0 12.8-4.266667 12.8-10.666667l6.4-66.133333c17.066667-6.4 32-14.933333 46.933333-27.733334l61.866667 27.733334c6.4 2.133333 12.8 0 17.066666-4.266667l53.333334-91.733333c4.266667-6.4 2.133333-12.8-4.266667-17.066667l-59.733333-38.4zM704 405.333333c-59.733333 0-106.666667-46.933333-106.666667-106.666666s46.933333-106.666667 106.666667-106.666667 106.666667 46.933333 106.666667 106.666667-46.933333 106.666667-106.666667 106.666666z" fill="#FFA000" p-id="5722"></path></svg>